# Blender v2.80 (sub 75) OBJ File: ''
# www.blender.org
mtllib LeftLeg.mtl
o Cube.005_Lilith_Model.005
v -2.801063 19.704018 -3.723315
v -3.133564 18.123137 5.218670
v 6.430829 16.545408 4.424976
v -4.632062 18.585119 -2.298635
v -5.044650 18.250399 0.813557
v -4.156988 18.510885 3.599332
v -1.810954 18.494202 6.125673
v -0.024459 18.639191 6.773077
v 1.754810 18.673155 6.655237
v 3.701845 18.552483 6.613840
v -0.242442 4.171044 -5.616455
v 1.423647 4.189254 -5.354448
v 2.927229 4.204822 -4.590374
v 4.256861 4.228532 -3.545151
v 4.888498 4.222328 -1.897069
v 5.154198 4.222556 -0.231471
v 4.892233 4.216881 1.434712
v 4.128239 4.205854 2.938373
v 2.937008 4.190556 4.132337
v 1.435131 4.172489 4.899718
v -0.230354 4.153411 5.165406
v -1.896444 4.135201 4.903392
v -3.400025 4.119633 4.139319
v -4.593931 4.108241 2.947993
v -5.361295 4.102127 1.340618
v -5.626993 4.101899 -0.219586
v -5.365030 4.107574 -1.885768
v -4.601036 4.118600 -3.389428
v -3.409805 4.133899 -4.583393
v -1.907927 4.151966 -5.350774
v -0.393187 -16.068707 -4.153475
v 0.809956 -16.055552 -3.964269
v 1.895747 -16.044313 -3.412505
v 2.757910 -16.036076 -2.552206
v 3.312050 -16.031662 -1.467572
v 3.503923 -16.031504 -0.264783
v 3.314748 -16.035601 0.938426
v 2.763041 -16.043562 2.024275
v 1.902810 -16.054615 2.886478
v 0.818250 -16.067657 3.440632
v -0.384457 -16.081432 3.632495
v -1.587601 -16.094582 3.443286
v -2.673391 -16.105825 2.891521
v -3.535554 -16.114056 2.031222
v -4.089696 -16.118471 0.873951
v -4.281567 -16.118635 -0.256202
v -4.092394 -16.114538 -1.459412
v -3.540686 -16.106571 -2.545259
v -2.680454 -16.095524 -3.407463
v -1.595893 -16.082479 -3.961617
v -0.366198 -18.371746 -3.060974
v 0.497813 -18.362303 -2.925100
v 1.277551 -18.354225 -2.528861
v 1.896695 -18.348316 -1.911056
v 2.294640 -18.345140 -1.132149
v 2.432429 -18.345024 -0.268391
v 2.296577 -18.347967 0.595668
v 1.900380 -18.353689 1.375447
v 1.282623 -18.361626 1.994621
v 0.503769 -18.370995 2.392576
v -0.359929 -18.380882 2.530357
v -1.223942 -18.390327 2.394481
v -2.003680 -18.398405 1.998242
v -2.622823 -18.404312 1.380436
v -3.020769 -18.407484 0.549366
v -3.158558 -18.407600 -0.262229
v -3.022707 -18.404655 -1.126289
v -2.626509 -18.398933 -1.906067
v -2.008752 -18.391005 -2.525240
v -1.229897 -18.381634 -2.923195
v 6.599848 14.991200 -4.967924
v 6.420420 16.900045 -2.201221
v 6.425625 16.896545 0.732831
vt 1.000000 0.500000
vt 0.950000 1.000000
vt 0.950000 0.500000
vt 0.900000 1.000000
vt 0.900000 0.500000
vt 0.750000 0.500000
vt 0.700000 1.000000
vt 0.700000 0.500000
vt 0.650000 1.000000
vt 0.650000 0.500000
vt 0.600000 0.500000
vt 0.600000 1.000000
vt 0.550000 0.500000
vt 0.550000 1.000000
vt 0.500000 0.500000
vt 0.450000 1.000000
vt 0.450000 0.500000
vt 0.400000 1.000000
vt 0.400000 0.500000
vt 0.350000 1.000000
vt 0.350000 0.500000
vt 0.300000 1.000000
vt 0.300000 0.500000
vt 0.250000 0.500000
vt 0.250000 1.000000
vt 0.200000 0.500000
vt 0.150000 1.000000
vt 0.150000 0.500000
vt 0.100000 1.000000
vt 0.100000 0.500000
vt 0.050000 1.000000
vt 0.050000 0.500000
vt -0.000000 1.000000
vt -0.000000 0.500000
vt 0.100000 0.500000
vt 0.150000 0.500000
vt 0.250000 0.500000
vt 0.300000 0.500000
vt 0.300000 0.500000
vt 0.650000 0.500000
vt 0.700000 0.500000
vt -0.000000 0.500000
vt 0.050000 0.500000
vt 0.450000 0.500000
vt 0.600000 0.500000
vt 0.200000 0.500000
vt 0.800000 0.500000
vt 0.850000 0.500000
vt 0.850000 0.500000
vt 0.400000 0.500000
vt 0.550000 0.500000
vt 1.000000 0.500000
vt 0.500000 0.500000
vt 0.800000 0.500000
vt 0.350000 0.500000
vt 0.950000 0.500000
vt 0.750000 0.500000
vt 0.900000 0.500000
vt 0.555836 0.391069
vt 0.608931 0.444164
vt 0.944164 0.391068
vt 0.600000 0.500000
vt 0.650000 0.500000
vt 1.000000 0.500000
vt 0.200000 0.500000
vt 0.250000 0.500000
vt 0.550000 0.500000
vt 0.950000 0.500000
vt 0.150000 0.500000
vt 0.500000 0.500000
vt 0.900000 0.500000
vt 0.100000 0.500000
vt 0.850000 0.500000
vt 0.050000 0.500000
vt 0.450000 0.500000
vt 0.800000 0.500000
vt -0.000000 0.500000
vt 0.400000 0.500000
vt 0.700000 0.500000
vt 0.750000 0.500000
vt 0.350000 0.500000
vt 0.000000 0.000000
vt 0.000000 0.000000
vt 0.000000 0.000000
vt 0.500000 1.000000
vt 0.200000 1.000000
vt 0.675836 0.478254
vt 0.750000 0.490000
vt 0.824164 0.478254
vt 0.891068 0.444164
vt 0.978253 0.324164
vt 0.990000 0.250000
vt 0.521746 0.324164
vt 0.510000 0.250000
vt 0.978253 0.175836
vt 0.521746 0.175836
vt 0.944164 0.108932
vt 0.555836 0.108932
vt 0.891068 0.055836
vt 0.824164 0.021746
vt 0.608931 0.055836
vt 0.675835 0.021746
vt 0.750000 0.010000
vt 0.386257 0.863441
vn 0.1522 0.1442 -0.9778
vn 0.4410 0.2118 -0.8722
vn 0.9754 -0.1588 0.1528
vn 0.8712 -0.2157 0.4411
vn 0.6931 -0.2123 0.6888
vn 0.4496 -0.1753 0.8759
vn 0.1577 -0.1221 0.9799
vn -0.1539 -0.0829 0.9846
vn -0.4517 -0.0600 0.8901
vn -0.7063 -0.0106 0.7079
vn -0.9019 0.0362 0.4304
vn -0.9854 0.0283 0.1678
vn -0.9869 0.0455 -0.1550
vn -0.8879 0.0929 -0.4505
vn -0.7068 0.0665 -0.7043
vn -0.4546 0.0668 -0.8882
vn -0.1579 0.0938 -0.9830
vn -0.7059 -0.0664 -0.7052
vn -0.8874 -0.4358 0.1507
vn 0.8889 -0.0803 0.4510
vn -0.1564 -0.0700 -0.9852
vn -0.4513 -0.0711 0.8895
vn 0.7062 -0.0794 0.7036
vn -0.9857 -0.0653 -0.1552
vn 0.9302 -0.0863 -0.3568
vn -0.7043 -0.0689 0.7065
vn 0.4544 -0.0778 0.8874
vn -0.8894 -0.0655 -0.4524
vn -0.4533 -0.0680 -0.8888
vn 0.1557 -0.0724 -0.9851
vn 0.1579 -0.0758 0.9845
vn 0.9844 -0.0799 -0.1570
vn -0.9003 -0.0666 0.4301
vn 0.4524 -0.0747 -0.8887
vn -0.1542 -0.0735 0.9853
vn 0.9847 -0.0805 0.1545
vn -0.9837 -0.0657 0.1675
vn 0.6170 -0.0770 -0.7832
vn 0.0112 -0.9999 -0.0016
vn 0.6451 -0.4201 0.6382
vn 0.1453 -0.4227 -0.8946
vn -0.8889 -0.4357 -0.1412
vn 0.4163 -0.4230 0.8048
vn 0.4146 -0.4198 -0.8074
vn -0.8018 -0.4342 -0.4106
vn 0.1473 -0.4262 0.8925
vn 0.6438 -0.4176 -0.6412
vn -0.6357 -0.4319 -0.6398
vn -0.1357 -0.4294 0.8929
vn 0.8104 -0.4162 -0.4123
vn -0.4069 -0.4290 -0.8065
vn -0.4050 -0.4322 0.8057
vn 0.8981 -0.4157 -0.1432
vn -0.1378 -0.4258 -0.8943
vn -0.6341 -0.4345 0.6396
vn 0.8984 -0.4163 0.1398
vn -0.8117 -0.4344 0.3903
vn 0.8112 -0.4178 0.4091
vn 0.9838 -0.0868 -0.1569
vn 0.9268 -0.1205 -0.3557
vn 0.6037 -0.2322 -0.7627
vn -0.1270 0.0085 -0.9919
vn 0.5367 -0.1713 0.8262
vn 0.0136 -0.1205 0.9926
vn 0.0678 -0.1110 0.9915
vn -0.3319 -0.0994 0.9381
vn -0.5513 -0.0675 0.8316
vn -0.8477 -0.0247 0.5299
vn -0.9531 0.0152 0.3023
vn -0.9908 0.0500 -0.1260
vn -0.6174 0.0088 -0.7866
vn 0.8879 -0.0787 -0.4533
vn -0.8998 -0.0665 0.4311
vn -0.1541 -0.0735 0.9853
vn -0.9838 -0.0658 0.1670
vn 0.7041 -0.0866 -0.7048
vn 0.0112 -0.9999 -0.0017
vn 0.0112 -0.9999 -0.0018
vn 0.9950 -0.0990 -0.0108
vn 0.9928 -0.1200 -0.0019
vn 0.9642 -0.1848 0.1900
usemtl Material.004
s off
f 11/1/1 1/2/1 12/3/1
f 12/3/2 1/4/2 13/5/2
f 16/6/3 3/7/3 17/8/3
f 17/8/4 3/9/4 18/10/4
f 3/9/5 19/11/5 18/10/5
f 10/12/6 20/13/6 19/11/6
f 9/14/7 21/15/7 20/13/7
f 21/15/8 7/16/8 22/17/8
f 22/17/9 2/18/9 23/19/9
f 23/19/10 6/20/10 24/21/10
f 24/21/11 5/22/11 25/23/11
f 5/22/12 26/24/12 25/23/12
f 4/25/13 27/26/13 26/24/13
f 27/26/14 1/27/14 28/28/14
f 28/28/15 1/29/15 29/30/15
f 29/30/16 1/31/16 30/32/16
f 30/32/17 1/33/17 11/34/17
f 28/28/18 49/35/18 48/36/18
f 46/37/19 65/38/19 45/39/19
f 17/8/20 38/40/20 37/41/20
f 30/32/21 31/42/21 50/43/21
f 23/19/22 42/44/22 22/17/22
f 18/10/23 39/45/23 38/40/23
f 26/24/24 47/46/24 46/37/24
f 15/47/25 34/48/25 14/49/25
f 24/21/26 43/50/26 23/19/26
f 19/11/27 40/51/27 39/45/27
f 27/26/28 48/36/28 47/46/28
f 29/30/29 50/43/29 49/35/29
f 12/3/30 31/52/30 11/1/30
f 20/13/31 41/53/31 40/51/31
f 16/6/32 35/54/32 15/47/32
f 25/23/33 44/55/33 24/21/33
f 13/5/34 32/56/34 12/3/34
f 22/17/35 41/53/35 21/15/35
f 16/6/36 37/41/36 36/57/36
f 26/24/37 45/39/37 25/23/37
f 14/49/38 33/58/38 13/5/38
f 68/59/39 69/60/39 54/61/39
f 38/40/40 59/62/40 58/63/40
f 32/56/41 51/64/41 31/52/41
f 46/37/42 67/65/42 66/66/42
f 39/45/43 60/67/43 59/62/43
f 33/58/44 52/68/44 32/56/44
f 47/46/45 68/69/45 67/65/45
f 40/51/46 61/70/46 60/67/46
f 34/48/47 53/71/47 33/58/47
f 48/36/48 69/72/48 68/69/48
f 42/44/49 61/70/49 41/53/49
f 35/54/50 54/73/50 34/48/50
f 49/35/51 70/74/51 69/72/51
f 43/50/52 62/75/52 42/44/52
f 36/57/53 55/76/53 35/54/53
f 50/43/54 51/77/54 70/74/54
f 44/55/55 63/78/55 43/50/55
f 36/57/56 57/79/56 56/80/56
f 45/39/57 64/81/57 44/55/57
f 37/41/58 58/63/58 57/79/58
f 73/82/59 16/6/59 15/47/59
f 72/83/60 15/47/60 14/49/60
f 71/84/61 14/49/61 13/5/61
f 71/84/62 13/5/62 1/4/62
f 3/9/63 10/12/63 19/11/63
f 10/12/64 9/14/64 20/13/64
f 9/14/65 8/85/65 21/15/65
f 21/15/66 8/85/66 7/16/66
f 22/17/67 7/16/67 2/18/67
f 23/19/68 2/18/68 6/20/68
f 24/21/69 6/20/69 5/22/69
f 5/22/70 4/25/70 26/24/70
f 4/25/71 1/86/71 27/26/71
f 28/28/18 29/30/18 49/35/18
f 46/37/19 66/66/19 65/38/19
f 17/8/20 18/10/20 38/40/20
f 30/32/21 11/34/21 31/42/21
f 23/19/22 43/50/22 42/44/22
f 18/10/23 19/11/23 39/45/23
f 26/24/24 27/26/24 47/46/24
f 15/47/72 35/54/72 34/48/72
f 24/21/26 44/55/26 43/50/26
f 19/11/27 20/13/27 40/51/27
f 27/26/28 28/28/28 48/36/28
f 29/30/29 30/32/29 50/43/29
f 12/3/30 32/56/30 31/52/30
f 20/13/31 21/15/31 41/53/31
f 16/6/32 36/57/32 35/54/32
f 25/23/73 45/39/73 44/55/73
f 13/5/34 33/58/34 32/56/34
f 22/17/74 42/44/74 41/53/74
f 16/6/36 17/8/36 37/41/36
f 26/24/75 46/37/75 45/39/75
f 14/49/76 34/48/76 33/58/76
f 70/87/39 51/88/39 52/89/39
f 52/89/39 53/90/39 70/87/39
f 53/90/39 54/61/39 69/60/39
f 70/87/77 53/90/77 69/60/77
f 54/61/39 55/91/39 68/59/39
f 55/91/77 56/92/77 67/93/77
f 67/93/39 56/92/39 66/94/39
f 56/92/39 57/95/39 65/96/39
f 57/95/77 58/97/77 64/98/77
f 56/92/78 65/96/78 66/94/78
f 58/97/39 59/99/39 64/98/39
f 59/99/39 60/100/39 63/101/39
f 63/101/39 60/100/39 62/102/39
f 60/100/39 61/103/39 62/102/39
f 63/101/77 64/98/77 59/99/77
f 64/98/39 65/96/39 57/95/39
f 67/93/39 68/59/39 55/91/39
f 38/40/40 39/45/40 59/62/40
f 32/56/41 52/68/41 51/64/41
f 46/37/42 47/46/42 67/65/42
f 39/45/43 40/51/43 60/67/43
f 33/58/44 53/71/44 52/68/44
f 47/46/45 48/36/45 68/69/45
f 40/51/46 41/53/46 61/70/46
f 34/48/47 54/73/47 53/71/47
f 48/36/48 49/35/48 69/72/48
f 42/44/49 62/75/49 61/70/49
f 35/54/50 55/76/50 54/73/50
f 49/35/51 50/43/51 70/74/51
f 43/50/52 63/78/52 62/75/52
f 36/57/53 56/80/53 55/76/53
f 50/43/54 31/42/54 51/77/54
f 44/55/55 64/81/55 63/78/55
f 36/57/56 37/41/56 57/79/56
f 45/39/57 65/38/57 64/81/57
f 37/41/58 38/40/58 58/63/58
f 73/82/79 3/104/79 16/6/79
f 72/83/80 73/82/80 15/47/80
f 71/84/81 72/83/81 14/49/81
