# Blender v2.80 (sub 75) OBJ File: ''
# www.blender.org
mtllib RightLeg.mtl
o Cube.004_Lilith_Model.004
v 2.573116 19.521074 -4.050281
v 3.589018 19.390562 3.891332
v -7.389215 16.257317 4.560596
v 5.172577 19.659668 -2.477170
v 5.873603 19.623655 0.027509
v 4.715681 19.712374 2.650681
v 1.860333 18.893650 4.894753
v -0.327311 18.665258 5.684194
v -2.756520 18.605810 6.030561
v -4.761961 18.519920 5.776162
v 0.407116 3.791671 -5.500821
v 2.073205 3.809881 -5.238813
v 3.576787 3.825449 -4.474740
v 4.770692 3.836847 -3.283414
v 5.538055 3.842955 -1.781434
v 5.803756 3.843183 -0.115836
v 5.541791 3.837508 1.550345
v 4.777798 3.826482 3.054008
v 3.586566 3.811183 4.247971
v 2.084690 3.793116 5.015353
v 0.419204 3.774038 5.281040
v -1.246885 3.755828 5.019026
v -2.750467 3.740260 4.254953
v -3.944372 3.728868 3.063628
v -4.711737 3.722754 1.456252
v -4.977434 3.722527 -0.103952
v -4.715471 3.728201 -1.770133
v -3.951478 3.739228 -3.273794
v -2.760246 3.754526 -4.467758
v -1.258368 3.772593 -5.235138
v 0.256371 -16.448080 -4.037840
v 1.459515 -16.434925 -3.848635
v 2.545305 -16.423687 -3.296870
v 3.407468 -16.415451 -2.436571
v 3.961608 -16.411036 -1.351938
v 4.153481 -16.410877 -0.149148
v 3.964305 -16.414974 1.054061
v 3.412598 -16.422935 2.139909
v 2.552368 -16.433989 3.002112
v 1.467808 -16.447031 3.556267
v 0.265101 -16.460806 3.748130
v -0.938043 -16.473955 3.558921
v -2.023834 -16.485199 3.007155
v -2.885996 -16.493429 2.146857
v -3.440138 -16.497845 0.989586
v -3.632009 -16.498009 -0.140567
v -3.442836 -16.493912 -1.343776
v -2.891127 -16.485945 -2.429624
v -2.030896 -16.474897 -3.291828
v -0.946335 -16.461853 -3.845982
v 0.283360 -18.751120 -2.945339
v 1.147372 -18.741676 -2.809465
v 1.927110 -18.733599 -2.413227
v 2.546253 -18.727692 -1.795421
v 2.944197 -18.724514 -1.016514
v 3.081986 -18.724398 -0.152757
v 2.946135 -18.727341 0.711303
v 2.549938 -18.733065 1.491082
v 1.932182 -18.740999 2.110256
v 1.153327 -18.750368 2.508209
v 0.289629 -18.760258 2.645991
v -0.574384 -18.769701 2.510115
v -1.354122 -18.777779 2.113877
v -1.973266 -18.783686 1.496070
v -2.371211 -18.786858 0.665001
v -2.508999 -18.786974 -0.146594
v -2.373148 -18.784031 -1.010653
v -1.976951 -18.778309 -1.790433
v -1.359194 -18.770378 -2.409606
v -0.580339 -18.761009 -2.807560
v -7.220195 14.703109 -4.832304
v -7.399623 16.611954 -2.065601
v -7.394418 16.608454 0.868451
vt 0.200000 0.500000
vt 0.000000 0.000000
vt 0.150000 0.500000
vt 0.100000 0.500000
vt 0.150000 0.500000
vt 0.250000 0.500000
vt 0.300000 0.500000
vt 0.300000 0.500000
vt 0.700000 0.500000
vt 0.650000 0.500000
vt 0.700000 0.500000
vt 0.050000 0.500000
vt -0.000000 0.500000
vt 0.050000 0.500000
vt 0.400000 0.500000
vt 0.450000 0.500000
vt 0.450000 0.500000
vt 0.650000 0.500000
vt 0.600000 0.500000
vt 0.250000 0.500000
vt 0.200000 0.500000
vt 0.800000 0.500000
vt 0.850000 0.500000
vt 0.850000 0.500000
vt 0.350000 0.500000
vt 0.400000 0.500000
vt 0.600000 0.500000
vt 0.550000 0.500000
vt 0.100000 0.500000
vt 0.950000 0.500000
vt 1.000000 0.500000
vt 1.000000 0.500000
vt 0.550000 0.500000
vt 0.500000 0.500000
vt 0.750000 0.500000
vt 0.800000 0.500000
vt 0.300000 0.500000
vt 0.350000 0.500000
vt 0.900000 0.500000
vt 0.950000 0.500000
vt 0.500000 0.500000
vt 0.750000 0.500000
vt 0.900000 0.500000
vt 0.555836 0.391069
vt 0.608931 0.444164
vt 0.944164 0.391068
vt 0.600000 0.500000
vt 0.650000 0.500000
vt 1.000000 0.500000
vt 0.200000 0.500000
vt 0.250000 0.500000
vt 0.550000 0.500000
vt 0.950000 0.500000
vt 0.150000 0.500000
vt 0.500000 0.500000
vt 0.900000 0.500000
vt 0.100000 0.500000
vt 0.850000 0.500000
vt 0.050000 0.500000
vt 0.450000 0.500000
vt 0.800000 0.500000
vt -0.000000 0.500000
vt 0.400000 0.500000
vt 0.700000 0.500000
vt 0.750000 0.500000
vt 0.350000 0.500000
vt 0.386257 0.863441
vt 0.421690 0.840753
vt 0.421690 0.818064
vt 0.421690 0.795376
vt 0.421690 0.772688
vt 0.421690 0.750000
vt 0.421690 0.687500
vt 0.421690 0.625000
vt 0.421690 0.562500
vt 0.421690 0.500000
vt 0.000000 0.000000
vt 0.000000 0.000000
vt -0.000000 0.500000
vt 0.675836 0.478254
vt 0.750000 0.490000
vt 0.824164 0.478254
vt 0.891068 0.444164
vt 0.978253 0.324164
vt 0.990000 0.250000
vt 0.521746 0.324164
vt 0.510000 0.250000
vt 0.978253 0.175836
vt 0.521746 0.175836
vt 0.944164 0.108932
vt 0.555836 0.108932
vt 0.891068 0.055836
vt 0.824164 0.021746
vt 0.608931 0.055836
vt 0.675835 0.021746
vt 0.750000 0.010000
vn -0.8875 -0.0921 -0.4516
vn -0.7059 -0.0664 -0.7052
vn -0.8874 -0.4358 0.1507
vn 0.8889 -0.0803 0.4510
vn -0.1564 -0.0700 -0.9852
vn -0.4513 -0.0711 0.8895
vn 0.7062 -0.0794 0.7036
vn -0.9857 -0.0653 -0.1552
vn 0.8879 -0.0787 -0.4533
vn -0.7043 -0.0689 0.7065
vn 0.4544 -0.0778 0.8874
vn -0.8894 -0.0655 -0.4524
vn -0.4533 -0.0680 -0.8888
vn 0.1557 -0.0724 -0.9851
vn 0.1579 -0.0758 0.9845
vn 0.9844 -0.0799 -0.1570
vn -0.9003 -0.0666 0.4301
vn 0.4524 -0.0747 -0.8887
vn -0.1541 -0.0735 0.9853
vn 0.9847 -0.0805 0.1545
vn -0.9837 -0.0657 0.1675
vn 0.7046 -0.0769 -0.7054
vn 0.0112 -0.9999 -0.0016
vn 0.6451 -0.4201 0.6382
vn 0.1453 -0.4227 -0.8946
vn -0.8889 -0.4357 -0.1412
vn 0.4163 -0.4230 0.8048
vn 0.4146 -0.4198 -0.8074
vn -0.8018 -0.4342 -0.4106
vn 0.1473 -0.4262 0.8925
vn 0.6438 -0.4176 -0.6412
vn -0.6357 -0.4319 -0.6398
vn -0.1357 -0.4294 0.8929
vn 0.8104 -0.4162 -0.4123
vn -0.4069 -0.4290 -0.8065
vn -0.4050 -0.4322 0.8057
vn 0.8981 -0.4157 -0.1432
vn -0.1378 -0.4258 -0.8943
vn -0.6341 -0.4345 0.6396
vn 0.8984 -0.4163 0.1398
vn -0.8117 -0.4344 0.3903
vn 0.8112 -0.4178 0.4091
vn -0.3144 -0.1394 0.9390
vn -0.1200 -0.1178 0.9858
vn 0.1422 -0.0529 0.9884
vn 0.3402 -0.0084 0.9403
vn 0.4977 0.0198 0.8671
vn 0.7376 0.0200 0.6750
vn -0.8640 -0.2870 0.4136
vn -0.9559 -0.2445 0.1628
vn -0.9793 -0.1310 -0.1544
vn 0.9149 0.0197 0.4032
vn 0.9879 -0.0058 0.1553
vn 0.9875 -0.0029 -0.1575
vn 0.9630 0.0104 -0.2694
vn 0.5163 0.0305 -0.8559
vn 0.7046 0.0642 -0.7067
vn 0.4520 0.0530 -0.8905
vn 0.1542 0.0697 -0.9856
vn -0.7018 -0.1221 -0.7018
vn -0.4429 -0.2094 -0.8718
vn -0.1578 0.1122 -0.9811
vn -0.9796 -0.2001 -0.0177
vn -0.8998 -0.0665 0.4311
vn -0.9838 -0.0658 0.1670
vn 0.0112 -0.9999 -0.0017
vn 0.0112 -0.9999 -0.0018
vn 0.0112 -0.9999 -0.0015
vn -0.6791 -0.2684 0.6832
vn -0.4496 -0.1061 0.8869
vn -0.1549 -0.0345 0.9873
vn 0.1574 0.0102 0.9875
vn 0.4548 0.0139 0.8905
vn 0.7077 0.0161 0.7063
vn 0.8914 0.0150 0.4530
vn 0.8905 0.0006 -0.4550
vn -0.9659 -0.2589 0.0014
vn -0.9110 -0.3647 0.1925
vn 0.0485 0.0632 -0.9968
usemtl Material.003
s off
f 27/1/1 73/2/1 28/3/1
f 28/3/2 49/4/2 48/5/2
f 46/6/3 65/7/3 45/8/3
f 17/9/4 38/10/4 37/11/4
f 30/12/5 31/13/5 50/14/5
f 23/15/6 42/16/6 22/17/6
f 18/18/7 39/19/7 38/10/7
f 26/20/8 47/21/8 46/6/8
f 15/22/9 34/23/9 14/24/9
f 24/25/10 43/26/10 23/15/10
f 19/27/11 40/28/11 39/19/11
f 27/1/12 48/5/12 47/21/12
f 29/29/13 50/14/13 49/4/13
f 12/30/14 31/31/14 11/32/14
f 20/33/15 41/34/15 40/28/15
f 16/35/16 35/36/16 15/22/16
f 25/37/17 44/38/17 24/25/17
f 13/39/18 32/40/18 12/30/18
f 22/17/19 41/34/19 21/41/19
f 16/35/20 37/11/20 36/42/20
f 26/20/21 45/8/21 25/37/21
f 14/24/22 33/43/22 13/39/22
f 68/44/23 69/45/23 54/46/23
f 38/10/24 59/47/24 58/48/24
f 32/40/25 51/49/25 31/31/25
f 46/6/26 67/50/26 66/51/26
f 39/19/27 60/52/27 59/47/27
f 33/43/28 52/53/28 32/40/28
f 47/21/29 68/54/29 67/50/29
f 40/28/30 61/55/30 60/52/30
f 34/23/31 53/56/31 33/43/31
f 48/5/32 69/57/32 68/54/32
f 42/16/33 61/55/33 41/34/33
f 35/36/34 54/58/34 34/23/34
f 49/4/35 70/59/35 69/57/35
f 43/26/36 62/60/36 42/16/36
f 36/42/37 55/61/37 35/36/37
f 50/14/38 51/62/38 70/59/38
f 44/38/39 63/63/39 43/26/39
f 36/42/40 57/64/40 56/65/40
f 45/8/41 64/66/41 44/38/41
f 37/11/42 58/48/42 57/64/42
f 3/67/43 23/15/43 10/68/43
f 23/15/44 9/69/44 10/68/44
f 22/17/45 8/70/45 9/69/45
f 21/41/46 7/71/46 8/70/46
f 7/71/47 19/27/47 2/72/47
f 2/72/48 18/18/48 6/73/48
f 24/25/49 3/67/49 25/37/49
f 26/20/50 25/37/50 3/67/50
f 27/1/51 26/20/51 3/67/51
f 6/73/52 17/9/52 5/74/52
f 17/9/53 16/35/53 5/74/53
f 16/35/54 15/22/54 5/74/54
f 5/74/55 15/22/55 4/75/55
f 4/75/56 14/24/56 1/76/56
f 14/24/57 13/39/57 1/76/57
f 13/39/58 12/30/58 1/76/58
f 12/30/59 11/32/59 1/76/59
f 28/3/60 72/77/60 29/29/60
f 29/29/61 71/78/61 30/12/61
f 30/12/62 1/76/62 11/32/62
f 27/1/63 3/67/63 73/2/63
f 28/3/2 29/29/2 49/4/2
f 46/6/3 66/51/3 65/7/3
f 17/9/4 18/18/4 38/10/4
f 30/12/5 11/79/5 31/13/5
f 23/15/6 43/26/6 42/16/6
f 18/18/7 19/27/7 39/19/7
f 26/20/8 27/1/8 47/21/8
f 15/22/9 35/36/9 34/23/9
f 24/25/10 44/38/10 43/26/10
f 19/27/11 20/33/11 40/28/11
f 27/1/12 28/3/12 48/5/12
f 29/29/13 30/12/13 50/14/13
f 12/30/14 32/40/14 31/31/14
f 20/33/15 21/41/15 41/34/15
f 16/35/16 36/42/16 35/36/16
f 25/37/64 45/8/64 44/38/64
f 13/39/18 33/43/18 32/40/18
f 22/17/19 42/16/19 41/34/19
f 16/35/20 17/9/20 37/11/20
f 26/20/65 46/6/65 45/8/65
f 14/24/22 34/23/22 33/43/22
f 70/80/23 51/81/23 52/82/23
f 52/82/23 53/83/23 70/80/23
f 53/83/66 54/46/66 69/45/66
f 70/80/23 53/83/23 69/45/23
f 54/46/23 55/84/23 68/44/23
f 55/84/66 56/85/66 67/86/66
f 67/86/23 56/85/23 66/87/23
f 56/85/23 57/88/23 65/89/23
f 57/88/66 58/90/66 64/91/66
f 56/85/67 65/89/67 66/87/67
f 58/90/66 59/92/66 64/91/66
f 59/92/23 60/93/23 63/94/23
f 63/94/23 60/93/23 62/95/23
f 60/93/23 61/96/23 62/95/23
f 63/94/23 64/91/23 59/92/23
f 64/91/68 65/89/68 57/88/68
f 67/86/66 68/44/66 55/84/66
f 38/10/24 39/19/24 59/47/24
f 32/40/25 52/53/25 51/49/25
f 46/6/26 47/21/26 67/50/26
f 39/19/27 40/28/27 60/52/27
f 33/43/28 53/56/28 52/53/28
f 47/21/29 48/5/29 68/54/29
f 40/28/30 41/34/30 61/55/30
f 34/23/31 54/58/31 53/56/31
f 48/5/32 49/4/32 69/57/32
f 42/16/33 62/60/33 61/55/33
f 35/36/34 55/61/34 54/58/34
f 49/4/35 50/14/35 70/59/35
f 43/26/36 63/63/36 62/60/36
f 36/42/37 56/65/37 55/61/37
f 50/14/38 31/13/38 51/62/38
f 44/38/39 64/66/39 63/63/39
f 36/42/40 37/11/40 57/64/40
f 45/8/41 65/7/41 64/66/41
f 37/11/42 38/10/42 58/48/42
f 3/67/69 24/25/69 23/15/69
f 23/15/70 22/17/70 9/69/70
f 22/17/71 21/41/71 8/70/71
f 21/41/72 20/33/72 7/71/72
f 7/71/73 20/33/73 19/27/73
f 2/72/74 19/27/74 18/18/74
f 6/73/75 18/18/75 17/9/75
f 4/75/76 15/22/76 14/24/76
f 28/3/77 73/2/77 72/77/77
f 29/29/78 72/77/78 71/78/78
f 30/12/79 71/78/79 1/76/79
